<svg width="18" height="20" viewBox="0 0 18 20" fill="none" xmlns="http://www.w3.org/2000/svg">
<g id="elements">
<path id="Vector" d="M10.3481 17.8056C9.98671 18.144 9.50366 18.3332 9.00093 18.3332C8.49821 18.3332 8.01515 18.144 7.65374 17.8056C4.34418 14.6882 -0.0910308 11.2056 2.07189 6.14956C3.24136 3.4158 6.04862 1.6665 9.00093 1.6665C11.9532 1.6665 14.7605 3.4158 15.93 6.14956C18.0902 11.1992 13.6658 14.6989 10.3481 17.8056Z" stroke="#9C9FAA" stroke-width="1.5"/>
<path id="Ellipse 1590" d="M11.9166 9.16667C11.9166 10.7775 10.6107 12.0833 8.99992 12.0833C7.38909 12.0833 6.08325 10.7775 6.08325 9.16667C6.08325 7.55584 7.38909 6.25 8.99992 6.25C10.6107 6.25 11.9166 7.55584 11.9166 9.16667Z" stroke="#9C9FAA" stroke-width="1.5"/>
</g>
</svg>
