<svg width="20" height="18" viewBox="0 0 20 18" fill="none" xmlns="http://www.w3.org/2000/svg">
<g id="elements">
<path id="Vector 7163" d="M1.66675 3.16699L7.4276 6.43751C9.5323 7.63238 10.4679 7.63238 12.5726 6.43751L18.3334 3.16699" stroke="#9C9FAA" stroke-width="1.5" stroke-linejoin="round"/>
<path id="Vector" d="M8.75008 15.2502C8.36149 15.2451 7.97243 15.2376 7.58244 15.2278C4.95869 15.1619 3.64682 15.1289 2.70421 14.1822C1.76161 13.2354 1.73437 11.9574 1.67989 9.40131C1.66237 8.57943 1.66237 7.7624 1.67989 6.94052C1.73436 4.38444 1.7616 3.10639 2.70421 2.15966C3.64682 1.21292 4.95869 1.17994 7.58243 1.11398C9.1995 1.07333 10.8007 1.07333 12.4177 1.11399C15.0415 1.17995 16.3534 1.21293 17.296 2.15967C18.2386 3.10641 18.2658 4.38445 18.3203 6.94053C18.3283 7.31892 18.3327 7.49724 18.3333 7.75016" stroke="#9C9FAA" stroke-width="1.5" stroke-linecap="round" stroke-linejoin="round"/>
<path id="Vector_2" d="M15.8335 13.167C15.8335 13.8573 15.2739 14.417 14.5835 14.417C13.8931 14.417 13.3335 13.8573 13.3335 13.167C13.3335 12.4766 13.8931 11.917 14.5835 11.917C15.2739 11.917 15.8335 12.4766 15.8335 13.167ZM15.8335 13.167V13.5837C15.8335 14.274 16.3931 14.8337 17.0835 14.8337C17.7739 14.8337 18.3335 14.274 18.3335 13.5837V13.167C18.3335 11.0959 16.6546 9.41699 14.5835 9.41699C12.5124 9.41699 10.8335 11.0959 10.8335 13.167C10.8335 15.2381 12.5124 16.917 14.5835 16.917" stroke="#9C9FAA" stroke-width="1.5" stroke-linecap="round" stroke-linejoin="round"/>
</g>
</svg>
